<?xml version="1.0" standalone="no"?>
<!DOCTYPE svg PUBLIC "-//W3C//DTD SVG 20010904//EN"
 "http://www.w3.org/TR/2001/REC-SVG-20010904/DTD/svg10.dtd">
<svg version="1.0" xmlns="http://www.w3.org/2000/svg"
 width="512.000000pt" height="512.000000pt" viewBox="0 0 512.000000 512.000000"
 preserveAspectRatio="xMidYMid meet">

<g transform="translate(0.000000,512.000000) scale(0.100000,-0.100000)"
fill="#000000" stroke="none">
<path d="M2755 4604 c-144 -31 -305 -131 -436 -270 -69 -73 -183 -226 -262
-351 -71 -114 -181 -337 -167 -341 5 -2 51 6 102 17 268 57 657 73 915 38 67
-9 127 -17 135 -17 10 0 13 26 13 113 0 100 3 118 26 167 94 199 390 279 686
185 l76 -24 -54 56 c-196 202 -446 356 -671 414 -109 28 -269 34 -363 13z"/>
<path d="M2207 3585 c-97 -14 -268 -46 -337 -65 l-37 -10 -26 -107 c-15 -60
-27 -113 -27 -119 0 -7 32 -3 93 12 133 34 299 63 399 71 47 3 91 9 97 13 8 4
7 18 -5 45 -16 39 -16 118 1 158 9 21 -14 21 -158 2z"/>
<path d="M2488 3571 c-26 -23 -33 -37 -33 -68 0 -53 26 -90 74 -104 108 -32
185 104 99 176 -42 36 -98 34 -140 -4z"/>
<path d="M2755 3583 c17 -40 17 -119 1 -158 -12 -27 -13 -41 -5 -45 6 -4 48
-10 94 -14 46 -3 150 -17 231 -31 81 -14 149 -25 152 -25 2 0 -12 22 -32 49
-20 26 -52 83 -72 125 -20 42 -38 76 -40 76 -2 0 -50 6 -106 14 -57 8 -132 18
-167 21 -59 6 -63 5 -56 -12z"/>
<path d="M2410 3273 c-252 -14 -475 -59 -885 -180 -182 -54 -515 -182 -474
-183 8 0 87 11 175 25 691 107 1419 131 2099 69 204 -18 454 -49 618 -75 71
-11 131 -19 133 -16 13 13 -328 138 -549 202 -480 137 -765 178 -1117 158z"/>
<path d="M2240 2924 c-30 -2 -140 -8 -245 -14 -104 -6 -200 -14 -212 -17 -23
-5 -23 -8 -23 -163 0 -129 3 -167 19 -213 44 -127 145 -298 241 -407 l39 -44
80 42 c126 67 201 82 421 82 220 0 295 -15 421 -82 l80 -42 39 44 c58 65 154
209 190 285 64 133 70 164 70 336 l0 158 -32 5 c-130 21 -902 42 -1088 30z
m12 -110 c58 -19 123 -74 149 -126 19 -36 23 -39 47 -31 34 10 166 10 212 0
33 -8 36 -6 49 24 24 56 93 116 152 133 65 20 92 20 156 1 109 -33 180 -116
190 -225 14 -146 -68 -258 -211 -290 -128 -28 -264 57 -299 187 -8 32 -19 46
-42 57 -52 24 -115 28 -168 8 -46 -16 -50 -21 -67 -70 -38 -114 -131 -182
-249 -182 -153 0 -260 107 -261 260 0 183 173 312 342 254z"/>
<path d="M2098 2700 c-110 -60 -109 -216 2 -279 102 -57 230 20 230 139 0 52
-25 99 -72 133 -39 29 -114 32 -160 7z"/>
<path d="M2885 2706 c-16 -8 -43 -28 -60 -45 -27 -29 -30 -38 -30 -101 0 -63
3 -72 30 -101 56 -59 119 -73 191 -40 54 25 88 79 88 141 0 112 -118 191 -219
146z"/>
<path d="M1535 2869 c-180 -22 -386 -54 -560 -85 -221 -40 -265 -51 -265 -65
0 -6 12 -34 26 -64 84 -171 326 -331 671 -445 84 -27 159 -50 167 -50 10 0 17
15 20 48 4 26 16 108 29 182 15 95 23 188 25 313 l3 177 -23 -1 c-13 -1 -54
-5 -93 -10z"/>
<path d="M3472 2703 c2 -125 10 -218 25 -313 13 -74 25 -156 29 -182 3 -33 10
-48 20 -48 8 0 82 22 164 49 346 114 580 270 670 444 29 56 33 69 21 76 -40
25 -802 151 -914 151 -17 0 -18 -12 -15 -177z"/>
<path d="M1717 2325 c-4 -22 -9 -128 -13 -235 -6 -193 5 -341 37 -490 l11 -50
94 0 c82 0 97 -3 115 -21 14 -14 19 -28 15 -44 -18 -72 -26 -233 -16 -323 6
-53 13 -98 15 -100 3 -3 39 10 82 27 101 43 114 37 143 -60 30 -101 79 -204
140 -293 58 -87 165 -205 205 -226 25 -13 28 -12 96 56 133 131 220 273 276
452 34 110 44 114 146 71 43 -17 80 -30 83 -27 2 3 10 47 16 98 9 72 9 122 -1
224 -13 130 -13 130 9 148 18 14 41 18 110 18 l88 0 11 48 c31 136 36 197 35
437 0 138 -5 268 -10 290 l-10 40 -40 -75 c-46 -88 -127 -200 -208 -287 -66
-72 -90 -78 -139 -37 -16 14 -55 38 -86 53 -102 52 -154 62 -326 66 -231 6
-324 -15 -452 -101 -36 -24 -75 -44 -87 -44 -12 0 -43 24 -78 62 -97 103 -133
154 -246 348 -7 11 -11 4 -15 -25z"/>
<path d="M1310 1984 c-69 -52 -126 -99 -128 -103 -1 -4 37 -55 85 -112 285
-338 511 -684 701 -1071 l107 -217 174 -1 174 0 -64 68 c-108 112 -185 234
-230 362 -12 36 -25 69 -29 73 -4 5 -39 -5 -78 -22 -81 -36 -103 -38 -125 -13
-28 31 -51 185 -51 345 l0 147 -83 0 c-75 0 -84 2 -97 23 -32 49 -76 333 -76
493 l0 92 -65 16 c-35 9 -70 16 -77 15 -7 0 -69 -43 -138 -95z"/>
<path d="M3588 2062 l-58 -16 0 -77 c0 -167 -43 -455 -76 -506 -13 -21 -22
-23 -97 -23 l-82 0 -1 -152 c0 -163 -22 -307 -52 -340 -21 -25 -43 -23 -122
12 -38 16 -70 30 -73 30 -2 0 -15 -28 -27 -62 -52 -146 -127 -265 -233 -375
l-70 -73 174 0 174 0 92 188 c190 388 435 764 717 1100 48 57 86 108 84 112
-6 18 -258 200 -275 199 -10 -1 -44 -9 -75 -17z"/>
<path d="M1024 1762 c-27 -26 -60 -59 -73 -74 l-23 -27 105 -139 c203 -270
379 -556 523 -849 46 -94 84 -176 84 -182 0 -7 51 -11 155 -11 85 0 155 3 155
8 0 16 -142 295 -215 422 -92 160 -232 376 -335 515 -130 177 -303 385 -319
385 -3 0 -29 -22 -57 -48z"/>
<path d="M3994 1768 c-179 -195 -437 -559 -609 -858 -73 -127 -215 -406 -215
-422 0 -5 70 -8 155 -8 102 0 155 4 155 10 0 18 184 378 260 510 96 166 236
376 354 533 l97 128 -35 42 c-31 38 -108 107 -119 107 -3 0 -22 -19 -43 -42z"/>
<path d="M860 1540 c-7 -13 -90 -256 -185 -541 l-174 -519 514 0 515 0 -9 24
c-5 12 -39 82 -75 153 -133 267 -288 518 -479 777 -90 121 -96 127 -107 106z"/>
<path d="M4144 1422 c-122 -165 -231 -332 -331 -506 -70 -121 -194 -361 -214
-412 l-9 -24 515 0 514 0 -175 524 c-97 288 -181 531 -187 540 -10 13 -28 -7
-113 -122z"/>
</g>
</svg>
